<?xml version="1.0" standalone="no"?>
<!DOCTYPE svg PUBLIC "-//W3C//DTD SVG 20010904//EN"
 "http://www.w3.org/TR/2001/REC-SVG-20010904/DTD/svg10.dtd">
<svg version="1.0" xmlns="http://www.w3.org/2000/svg"
 width="550.000000pt" height="102.000000pt" viewBox="0 0 550.000000 102.000000"
 preserveAspectRatio="xMidYMid meet">

<g transform="translate(0.000000,102.000000) scale(0.100000,-0.100000)"
fill="currentColor" stroke="none">
<path d="M3990 960 c-164 -30 -292 -133 -351 -280 -26 -66 -37 -230 -21 -307
51 -236 267 -377 527 -345 93 12 196 54 257 105 l28 23 -58 57 -58 57 -34 -25
c-120 -89 -299 -86 -404 6 -92 81 -129 216 -92 340 40 139 146 213 306 212 80
0 130 -16 185 -58 l32 -24 53 54 c29 29 50 58 46 63 -14 23 -123 86 -176 103
-70 22 -180 31 -240 19z"/>
<path d="M4857 959 c-218 -44 -349 -207 -363 -449 -5 -84 -3 -104 20 -175 56
-177 180 -280 366 -307 283 -40 507 134 536 416 18 177 -69 374 -200 451 -101
59 -252 86 -359 64z m180 -153 c72 -19 113 -47 152 -101 43 -61 61 -121 61
-210 0 -111 -22 -168 -88 -235 -65 -64 -109 -81 -208 -81 -184 0 -298 122
-298 316 1 95 25 163 81 225 52 58 70 69 138 86 67 16 100 16 162 0z"/>
<path d="M60 875 l0 -75 145 0 145 0 0 -380 0 -380 85 0 85 0 0 380 0 380 145
0 145 0 0 75 0 75 -375 0 -375 0 0 -75z"/>
<path d="M1210 908 c-10 -24 -102 -229 -203 -455 l-184 -413 89 0 89 0 42 90
42 90 238 -3 238 -2 38 -85 39 -85 92 -3 c53 -2 90 1 88 6 -1 5 -93 210 -203
456 l-200 446 -93 0 -93 0 -19 -42z m205 -351 c43 -98 75 -180 73 -183 -3 -2
-80 -3 -171 -2 l-166 3 70 160 c39 88 77 176 85 195 18 42 9 57 109 -173z"/>
<path d="M1890 495 l0 -455 85 0 85 0 0 170 0 170 225 0 225 0 0 75 0 75 -225
0 -225 0 0 130 0 130 240 0 240 0 0 80 0 80 -325 0 -325 0 0 -455z"/>
<path d="M2660 673 c0 -304 10 -381 55 -458 43 -75 74 -104 152 -142 70 -35
84 -38 180 -41 89 -4 113 -1 166 18 112 41 160 85 206 191 32 72 41 164 41
447 l0 262 -84 0 -85 0 -3 -312 c-3 -310 -3 -313 -27 -355 -14 -24 -42 -55
-64 -70 -37 -26 -48 -28 -132 -28 -83 0 -95 3 -133 27 -22 15 -54 49 -69 75
l-28 48 -3 308 -3 307 -85 0 -84 0 0 -277z"/>
</g>
</svg>
